HIERARCHY
ROOT Hips
{
	OFFSET 0.000000 0.000000 0.000000
	CHANNELS 6 Xposition Yposition Zposition Xrotation Yrotation Zrotation
	JOINT LeftUpLeg_virtual
	{
		OFFSET 0.000000 0.000000 0.000000
		CHANNELS 3 Xrotation Yrotation Zrotation
		JOINT LeftUpLeg
		{
			OFFSET 13.026900 -6.336304 -1.092800
			CHANNELS 3 Xrotation Yrotation Zrotation
			JOINT LeftLeg
			{
				OFFSET 0.524474 -46.096886 9.782700
				CHANNELS 3 Xrotation Yrotation Zrotation
				JOINT LeftFoot
				{
					OFFSET -0.524474 -53.427422 -12.948200
					CHANNELS 3 Xrotation Yrotation Zrotation
					JOINT LeftToeBase
					{
						OFFSET 0.192200 -14.009700 16.364100
						CHANNELS 3 Xrotation Yrotation Zrotation
						JOINT LeftToe_End
						{
							OFFSET -1.784700 -0.561700 9.474800
							CHANNELS 3 Xrotation Yrotation Zrotation
							End Site
							{
								OFFSET 0 0 0
							}
						}
					}
				}
			}
		}
	}
	JOINT RightUpLeg_virtual
	{
		OFFSET 0.000000 0.000000 0.000000
		CHANNELS 3 Xrotation Yrotation Zrotation
		JOINT RightUpLeg
		{
			OFFSET -12.883000 -6.336304 -1.092800
			CHANNELS 3 Xrotation Yrotation Zrotation
			JOINT RightLeg
			{
				OFFSET -0.524587 -46.096825 9.782800
				CHANNELS 3 Xrotation Yrotation Zrotation
				JOINT RightFoot
				{
					OFFSET 0.524587 -53.427383 -12.948300
					CHANNELS 3 Xrotation Yrotation Zrotation
					JOINT RightToeBase
					{
						OFFSET -0.192200 -14.009700 16.364100
						CHANNELS 3 Xrotation Yrotation Zrotation
						JOINT RightToe_End
						{
							OFFSET 1.784700 -0.561700 9.474800
							CHANNELS 3 Xrotation Yrotation Zrotation
							End Site
							{
								OFFSET 0 0 0
							}
						}
					}
				}
			}
		}
	}
	JOINT Spine_virtual
	{
		OFFSET 0.000000 0.000000 0.000000
		CHANNELS 3 Xrotation Yrotation Zrotation
		JOINT Spine
		{
			OFFSET 0.072000 7.257294 -0.789700
			CHANNELS 3 Xrotation Yrotation Zrotation
			JOINT Spine1
			{
				OFFSET 0.000000 12.508769 -0.658067
				CHANNELS 3 Xrotation Yrotation Zrotation
				JOINT Spine1_split
				{
					OFFSET 0.000000 12.508769 -0.658067
					CHANNELS 3 Xrotation Yrotation Zrotation
					JOINT Spine2
					{
						OFFSET 0.000000 12.508769 -0.658067
						CHANNELS 3 Xrotation Yrotation Zrotation
						JOINT Neck_virtual
						{
							OFFSET 0.000000 0.000000 0.000000
							CHANNELS 3 Xrotation Yrotation Zrotation
							JOINT Neck
							{
								OFFSET 0.000000 14.033295 7.520400
								CHANNELS 3 Xrotation Yrotation Zrotation
								JOINT Head
								{
									OFFSET 0.000000 8.198502 5.703100
									CHANNELS 3 Xrotation Yrotation Zrotation
									JOINT HeadTop_End
									{
										OFFSET 0.000000 17.760803 13.332701
										CHANNELS 3 Xrotation Yrotation Zrotation
										End Site
										{
											OFFSET 0 0 0
										}
									}
								}
							}
						}
						JOINT LeftShoulder_virtual
						{
							OFFSET 0.000000 0.000000 0.000000
							CHANNELS 3 Xrotation Yrotation Zrotation
							JOINT LeftShoulder
							{
								OFFSET 6.292450 5.785301 -0.669000
								CHANNELS 3 Xrotation Yrotation Zrotation
								JOINT LeftShoulder_split
								{
									OFFSET 6.292450 5.785301 -0.669000
									CHANNELS 3 Xrotation Yrotation Zrotation
									JOINT LeftArm
									{
										OFFSET 13.907140 -6.093903 1.965100
										CHANNELS 3 Xrotation Yrotation Zrotation
										JOINT LeftForeArm
										{
											OFFSET 34.140198 0.000000 0.000000
											CHANNELS 3 Xrotation Yrotation Zrotation
											JOINT LeftHand
											{
												OFFSET 40.960209 0.000000 0.000000
												CHANNELS 3 Xrotation Yrotation Zrotation
												End Site
												{
													OFFSET 0 0 0
												}
											}
										}
									}
								}
							}
						}
						JOINT RightShoulder_virtual
						{
							OFFSET 0.000000 0.000000 0.000000
							CHANNELS 3 Xrotation Yrotation Zrotation
							JOINT RightShoulder
							{
								OFFSET -6.292450 5.785301 -0.669000
								CHANNELS 3 Xrotation Yrotation Zrotation
								JOINT RightShoulder_split
								{
									OFFSET -6.292450 5.785301 -0.669000
									CHANNELS 3 Xrotation Yrotation Zrotation
									JOINT RightArm
									{
										OFFSET -13.907140 -6.093903 1.965100
										CHANNELS 3 Xrotation Yrotation Zrotation
										JOINT RightForeArm
										{
											OFFSET -34.140198 0.000000 0.000000
											CHANNELS 3 Xrotation Yrotation Zrotation
											JOINT RightHand
											{
												OFFSET -40.960209 0.000000 0.000000
												CHANNELS 3 Xrotation Yrotation Zrotation
												End Site
												{
													OFFSET 0 0 0
												}
											}
										}
									}
								}
							}
						}
					}
				}
			}
		}
	}
}
MOTION
Frames: 8
Frame Time: 0.03333333
0.096887 94.712021 1.447880 0.000000 0.000000 0.000000 7.416809 -11.582704 3.820478 -53.090907 5.420600 19.615769 43.532907 3.062265 7.545654 3.718598 0.490025 -20.792486 0.532719 0.453285 -0.644536 0.000000 0.000000 0.000000 7.119760 -12.538226 4.317293 -34.164517 1.265126 -30.777164 44.925501 0.915955 -1.353290 -14.751020 -6.732946 26.582024 0.872047 0.663856 0.143204 0.000000 0.000000 0.000000 8.881085 -10.770243 4.030671 7.911089 1.245945 -1.071570 8.040967 2.114985 -0.922748 1.133897 0.418933 0.366972 0.000000 0.000000 0.000000 8.124613 1.220337 -0.475552 -1.544872 0.117545 -0.413926 -17.624231 0.647374 2.265653 0.000000 0.000000 0.000000 7.251623 1.323309 -0.697830 2.501214 -12.923389 -9.342358 -4.696556 -4.352826 -1.799441 -22.625966 -3.752949 -43.404329 -179.423400 -56.860693 179.007838 0.000000 0.000000 0.000000 7.281673 1.366962 -0.486838 0.642282 8.616219 10.401084 1.025146 3.921961 -0.913489 5.605975 5.171114 41.314517 -179.469504 87.269559 178.181249 0.000000 0.000000 0.000000 
0.181435 94.753548 1.582932 0.000000 0.000000 0.000000 7.478783 -11.567520 3.783019 -53.092481 5.325667 19.635544 43.507854 3.125119 7.517949 3.612254 0.501756 -20.824342 0.565885 0.450157 -0.647875 0.000000 0.000000 0.000000 7.151298 -12.542155 4.279042 -34.022347 1.270264 -30.738805 44.721121 0.866710 -1.349970 -14.763058 -6.762126 26.622845 0.827386 0.648148 0.132243 0.000000 0.000000 0.000000 8.975982 -10.763632 3.971505 7.878312 1.268008 -1.099303 8.078247 2.106693 -0.947500 1.187500 0.445191 0.338102 0.000000 0.000000 0.000000 8.122523 1.213070 -0.488159 -1.532039 0.098484 -0.398706 -17.560616 0.675760 2.246401 0.000000 0.000000 0.000000 7.315853 1.313883 -0.691566 2.473594 -12.924581 -9.384847 -4.638241 -4.212760 -1.850455 -22.505359 -3.757618 -43.646893 -179.534541 -57.000866 178.882764 0.000000 0.000000 0.000000 7.314279 1.352984 -0.502044 0.684362 8.745907 10.451650 1.025012 4.000921 -0.946146 5.787299 5.042347 41.152966 -179.912182 87.242238 178.687393 0.000000 0.000000 0.000000 
0.333897 94.775703 1.694988 0.000000 0.000000 0.000000 7.555420 -11.630037 3.701005 -53.125573 5.162806 19.676081 43.596237 3.214908 7.500974 3.444617 0.529140 -20.926151 0.599121 0.449304 -0.645362 0.000000 0.000000 0.000000 7.194276 -12.576463 4.192808 -33.891730 1.224633 -30.663796 44.436323 0.809268 -1.351647 -14.856426 -6.812569 26.626500 0.835634 0.634756 0.112559 0.000000 0.000000 0.000000 9.091265 -10.763609 3.874973 7.856051 1.323153 -1.165501 8.106542 2.129552 -0.960887 1.148402 0.372232 0.301693 0.000000 0.000000 0.000000 8.103476 1.229684 -0.494956 -1.479017 0.016952 -0.390183 -17.403039 0.564236 2.237795 0.000000 0.000000 0.000000 7.364148 1.323508 -0.699934 2.440507 -12.922959 -9.472392 -4.574497 -4.173900 -1.782691 -22.498307 -3.662058 -44.154414 -179.697223 -57.176210 178.716531 0.000000 0.000000 0.000000 7.339359 1.371824 -0.504061 0.731715 8.944004 10.561241 0.986955 4.093303 -0.968808 6.226887 4.816205 40.845245 -179.748818 87.276881 178.594871 0.000000 0.000000 0.000000 
0.525793 94.757690 1.769047 0.000000 0.000000 0.000000 7.628101 -11.762042 3.595677 -53.182428 4.974269 19.724850 43.780085 3.317798 7.498456 3.236557 0.561182 -21.079149 0.614823 0.451121 -0.631557 0.000000 0.000000 0.000000 7.247334 -12.655640 4.079813 -33.827994 1.150195 -30.578149 44.154089 0.766591 -1.347528 -14.939231 -6.858739 26.645707 0.831832 0.625667 0.093450 0.000000 0.000000 0.000000 9.202684 -10.756090 3.767534 7.843099 1.403588 -1.263315 8.120951 2.174385 -0.967399 1.047848 0.291048 0.288620 0.000000 0.000000 0.000000 8.071343 1.266009 -0.498330 -1.416741 -0.097206 -0.392408 -17.217814 0.342493 2.229963 0.000000 0.000000 0.000000 7.391124 1.344122 -0.724965 2.415064 -12.918925 -9.559201 -4.531436 -4.221910 -1.649355 -22.620381 -3.486233 -44.763496 -179.880244 -57.313060 178.549614 0.000000 0.000000 0.000000 7.349951 1.413066 -0.497682 0.778813 9.177592 10.667253 0.881344 4.147796 -0.917771 6.809944 4.500697 40.416357 -178.840813 87.251555 177.754430 0.000000 0.000000 0.000000 
0.715209 94.700668 1.794769 0.000000 0.000000 0.000000 7.696430 -11.923639 3.486901 -53.252413 4.793843 19.767886 44.028789 3.429048 7.512335 3.016063 0.592252 -21.239235 0.608789 0.456679 -0.607591 0.000000 0.000000 0.000000 7.307811 -12.742316 3.965623 -33.827728 1.077072 -30.502621 43.926719 0.763264 -1.342953 -14.979237 -6.893503 26.730020 0.737887 0.619374 0.085376 0.000000 0.000000 0.000000 9.296196 -10.731328 3.661984 7.839275 1.494599 -1.387963 8.125262 2.223679 -0.976069 0.962764 0.231846 0.316793 0.000000 0.000000 0.000000 8.035305 1.307014 -0.505836 -1.380680 -0.219618 -0.416615 -17.087704 0.045791 2.215674 0.000000 0.000000 0.000000 7.403775 1.362915 -0.765779 2.403838 -12.932507 -9.611585 -4.514960 -4.300127 -1.538879 -22.837091 -3.243853 -45.303105 179.956606 -57.360038 178.432600 0.000000 0.000000 0.000000 7.351081 1.460848 -0.491517 0.821385 9.417946 10.731359 0.718926 4.102606 -0.798845 7.413006 4.119710 39.915748 -177.321096 87.068888 176.290693 0.000000 0.000000 0.000000 
0.863922 94.623802 1.763931 0.000000 0.000000 0.000000 7.762852 -12.076625 3.392962 -53.320183 4.640385 19.798446 44.289187 3.551554 7.542080 2.819602 0.617015 -21.363146 0.595551 0.466564 -0.587360 0.000000 0.000000 0.000000 7.374390 -12.811260 3.862593 -33.867517 1.036020 -30.437232 43.780584 0.805669 -1.348624 -15.018543 -6.930076 26.847781 0.590270 0.614804 0.093837 0.000000 0.000000 0.000000 9.376421 -10.734620 3.575818 7.843794 1.581537 -1.522486 8.122864 2.258627 -0.995254 0.925564 0.188210 0.389071 0.000000 0.000000 0.000000 8.002194 1.345113 -0.524978 -1.381249 -0.332947 -0.464129 -17.032714 -0.280800 2.176707 0.000000 0.000000 0.000000 7.414801 1.374601 -0.820339 2.409279 -12.976566 -9.611039 -4.517298 -4.360677 -1.483634 -23.063664 -2.959413 -45.650925 179.833567 -57.274015 178.389119 0.000000 0.000000 0.000000 7.349721 1.503151 -0.492951 0.861390 9.628632 10.721469 0.505885 3.978465 -0.642227 7.945158 3.682026 39.428370 -175.865992 86.728226 174.885054 0.000000 0.000000 0.000000 
0.934322 94.553459 1.698967 0.000000 0.000000 0.000000 7.810313 -12.196851 3.318188 -53.364965 4.509632 19.829530 44.495472 3.683184 7.592100 2.691101 0.623883 -21.442974 0.589387 0.479766 -0.577643 0.000000 0.000000 0.000000 7.432434 -12.880991 3.782257 -33.924218 1.042464 -30.382580 43.737769 0.875350 -1.357518 -15.120461 -6.980479 26.907551 0.545506 0.612356 0.125818 0.000000 0.000000 0.000000 9.430962 -10.766665 3.508500 7.855690 1.659038 -1.656748 8.126025 2.277740 -1.024917 0.980449 0.191383 0.443857 0.000000 0.000000 0.000000 7.978665 1.375068 -0.552846 -1.409688 -0.423126 -0.537029 -17.025541 -0.611042 2.094963 0.000000 0.000000 0.000000 7.433217 1.379500 -0.878868 2.426036 -13.090206 -9.549625 -4.551660 -4.364124 -1.493363 -23.168220 -2.664872 -45.778896 179.779964 -57.021851 178.453555 0.000000 0.000000 0.000000 7.343054 1.535148 -0.502773 0.901094 9.805095 10.631623 0.282798 3.837943 -0.448276 8.334736 3.214526 39.039353 -174.943247 86.294297 174.019614 0.000000 0.000000 0.000000 
0.923724 94.514404 1.581875 0.000000 0.000000 0.000000 7.829208 -12.281063 3.261627 -53.342189 4.393389 19.858772 44.585904 3.814515 7.660672 2.658099 0.594601 -21.493005 0.580609 0.492012 -0.573425 0.000000 0.000000 0.000000 7.452132 -12.932208 3.722983 -33.999900 1.079270 -30.340172 43.802498 0.955043 -1.360228 -15.294503 -7.042166 26.867053 0.660908 0.612869 0.172741 0.000000 0.000000 0.000000 9.437614 -10.837590 3.459578 7.864677 1.722957 -1.773523 8.130807 2.284168 -1.055144 1.094576 0.206106 0.479486 0.000000 0.000000 0.000000 7.969794 1.397659 -0.581403 -1.423232 -0.493603 -0.635022 -17.005419 -0.946240 1.955493 0.000000 0.000000 0.000000 7.462674 1.388537 -0.926764 2.447045 -13.287318 -9.446325 -4.618465 -4.296651 -1.585756 -23.070900 -2.389317 -45.749324 179.818759 -56.617699 178.642751 0.000000 0.000000 0.000000 7.336323 1.560474 -0.516776 0.944344 9.942508 10.478408 0.065398 3.704404 -0.260984 8.550688 2.790809 38.843317 -174.651844 85.783556 173.803289 0.000000 0.000000 0.000000 
